%TF.GenerationSoftware,KiCad,Pcbnew,9.0.5*%
%TF.CreationDate,2026-06-10T21:40:34+05:30*%
%TF.ProjectId,Hermes,4865726d-6573-42e6-9b69-6361645f7063,rev?*%
%TF.SameCoordinates,Original*%
%TF.FileFunction,Copper,L1,Top*%
%TF.FilePolarity,Positive*%
%FSLAX46Y46*%
G04 Gerber Fmt 4.6, Leading zero omitted, Abs format (unit mm)*
G04 Created by KiCad (PCBNEW 9.0.5) date 2026-06-10 21:40:34*
%MOMM*%
%LPD*%
G01*
G04 APERTURE LIST*
%TA.AperFunction,ComponentPad*%
%ADD10R,1.600000X1.600000*%
%TD*%
%TA.AperFunction,ComponentPad*%
%ADD11O,1.600000X1.600000*%
%TD*%
%TA.AperFunction,ComponentPad*%
%ADD12C,1.508000*%
%TD*%
%TA.AperFunction,ComponentPad*%
%ADD13C,1.530000*%
%TD*%
%TA.AperFunction,ComponentPad*%
%ADD14R,1.508000X1.508000*%
%TD*%
%TA.AperFunction,Conductor*%
%ADD15C,0.200000*%
%TD*%
G04 APERTURE END LIST*
D10*
%TO.P,A1,1,TX1*%
%TO.N,unconnected-(A1-TX1-Pad1)*%
X146685000Y-87630000D03*
D11*
%TO.P,A1,2,RX1*%
%TO.N,unconnected-(A1-RX1-Pad2)*%
X146685000Y-90170000D03*
%TO.P,A1,3,~{RESET}*%
%TO.N,unconnected-(A1-~{RESET}-Pad3)*%
X146685000Y-92710000D03*
%TO.P,A1,4,GND*%
%TO.N,Net-(DS1-GND)*%
X146685000Y-95250000D03*
%TO.P,A1,5,D2*%
%TO.N,unconnected-(A1-D2-Pad5)*%
X146685000Y-97790000D03*
%TO.P,A1,6,D3*%
%TO.N,Net-(A1-D3)*%
X146685000Y-100330000D03*
%TO.P,A1,7,D4*%
%TO.N,unconnected-(A1-D4-Pad7)*%
X146685000Y-102870000D03*
%TO.P,A1,8,D5*%
%TO.N,unconnected-(A1-D5-Pad8)*%
X146685000Y-105410000D03*
%TO.P,A1,9,D6*%
%TO.N,unconnected-(A1-D6-Pad9)*%
X146685000Y-107950000D03*
%TO.P,A1,10,D7*%
%TO.N,unconnected-(A1-D7-Pad10)*%
X146685000Y-110490000D03*
%TO.P,A1,11,D8*%
%TO.N,unconnected-(A1-D8-Pad11)*%
X146685000Y-113030000D03*
%TO.P,A1,12,D9*%
%TO.N,Net-(A1-D9)*%
X146685000Y-115570000D03*
%TO.P,A1,13,D10*%
%TO.N,Net-(A1-D10)*%
X146685000Y-118110000D03*
%TO.P,A1,14,MOSI*%
%TO.N,unconnected-(A1-MOSI-Pad14)*%
X146685000Y-120650000D03*
%TO.P,A1,15,MISO*%
%TO.N,unconnected-(A1-MISO-Pad15)*%
X146685000Y-123190000D03*
%TO.P,A1,16,SCK*%
%TO.N,Net-(A1-SCK)*%
X161925000Y-123190000D03*
%TO.P,A1,17,3V3*%
%TO.N,unconnected-(A1-3V3-Pad17)*%
X161925000Y-120650000D03*
%TO.P,A1,18,AREF*%
%TO.N,unconnected-(A1-AREF-Pad18)*%
X161925000Y-118110000D03*
%TO.P,A1,19,A0*%
%TO.N,unconnected-(A1-A0-Pad19)*%
X161925000Y-115570000D03*
%TO.P,A1,20,A1*%
%TO.N,Net-(A1-A1)*%
X161925000Y-113030000D03*
%TO.P,A1,21,A2*%
%TO.N,unconnected-(A1-A2-Pad21)*%
X161925000Y-110490000D03*
%TO.P,A1,22,A3*%
%TO.N,unconnected-(A1-A3-Pad22)*%
X161925000Y-107950000D03*
%TO.P,A1,23,SDA/A4*%
%TO.N,Net-(A1-SDA{slash}A4)*%
X161925000Y-105410000D03*
%TO.P,A1,24,SCL/A5*%
%TO.N,unconnected-(A1-SCL{slash}A5-Pad24)*%
X161925000Y-102870000D03*
%TO.P,A1,25,A6*%
%TO.N,unconnected-(A1-A6-Pad25)*%
X161925000Y-100330000D03*
%TO.P,A1,26,A7*%
%TO.N,unconnected-(A1-A7-Pad26)*%
X161925000Y-97790000D03*
%TO.P,A1,27,+5V*%
%TO.N,Net-(A1-+5V)*%
X161925000Y-95250000D03*
%TO.P,A1,28,~{RESET}*%
%TO.N,unconnected-(A1-~{RESET}-Pad28)*%
X161925000Y-92710000D03*
%TO.P,A1,29,GND*%
%TO.N,Net-(DS1-GND)*%
X161925000Y-90170000D03*
%TO.P,A1,30,VIN*%
%TO.N,unconnected-(A1-VIN-Pad30)*%
X161925000Y-87630000D03*
%TD*%
D12*
%TO.P,SENS-1,P$1,VCC*%
%TO.N,Net-(A1-+5V)*%
X149701250Y-76200000D03*
%TO.P,SENS-1,P$2,DAT*%
%TO.N,Net-(A1-A1)*%
X152241250Y-76200000D03*
%TO.P,SENS-1,P$3*%
%TO.N,N/C*%
X154781250Y-76200000D03*
%TO.P,SENS-1,P$4,GND*%
%TO.N,Net-(DS1-GND)*%
X157321250Y-76200000D03*
%TD*%
D13*
%TO.P,U1,1,VCC*%
%TO.N,Net-(A1-+5V)*%
X191928750Y-87706250D03*
%TO.P,U1,2,TRIG*%
%TO.N,Net-(A1-D10)*%
X189388750Y-87706250D03*
%TO.P,U1,3,ECHO*%
%TO.N,Net-(A1-D9)*%
X186848750Y-87706250D03*
%TO.P,U1,4,GND*%
%TO.N,Net-(DS1-GND)*%
X184308750Y-87706250D03*
%TD*%
D12*
%TO.P,SW1,1,1*%
%TO.N,Net-(DS1-GND)*%
X204787500Y-102393750D03*
%TO.P,SW1,2,2*%
%TO.N,Net-(A1-D3)*%
X209787500Y-102393750D03*
%TD*%
D14*
%TO.P,DS1,1,VDD*%
%TO.N,Net-(A1-+5V)*%
X180975000Y-92868750D03*
D12*
%TO.P,DS1,2,GND*%
%TO.N,Net-(DS1-GND)*%
X183515000Y-92868750D03*
%TO.P,DS1,3,SCK*%
%TO.N,Net-(A1-SCK)*%
X186055000Y-92868750D03*
%TO.P,DS1,4,SDA*%
%TO.N,Net-(A1-SDA{slash}A4)*%
X188595000Y-92868750D03*
%TD*%
D15*
%TO.N,Net-(DS1-GND)*%
X185374750Y-86640250D02*
X190238302Y-86640250D01*
X156845000Y-95250000D02*
X161925000Y-90170000D01*
X189682750Y-88772250D02*
X191487198Y-88772250D01*
X184570000Y-91813750D02*
X186641250Y-91813750D01*
X146685000Y-95250000D02*
X156845000Y-95250000D01*
X204787500Y-100012500D02*
X204787500Y-102393750D01*
X157321250Y-85566250D02*
X157321250Y-76200000D01*
X193547250Y-88772250D02*
X204787500Y-100012500D01*
X190862750Y-88147802D02*
X191487198Y-88772250D01*
X164388750Y-87706250D02*
X184308750Y-87706250D01*
X190238302Y-86640250D02*
X190862750Y-87264698D01*
X183515000Y-92868750D02*
X184570000Y-91813750D01*
X161925000Y-90170000D02*
X157321250Y-85566250D01*
X190862750Y-87264698D02*
X190862750Y-88147802D01*
X161925000Y-90170000D02*
X164388750Y-87706250D01*
X191487198Y-88772250D02*
X193547250Y-88772250D01*
X184308750Y-87706250D02*
X185374750Y-86640250D01*
X186641250Y-91813750D02*
X189682750Y-88772250D01*
%TO.N,Net-(A1-D10)*%
X162073500Y-109389000D02*
X165755250Y-105707250D01*
X165755250Y-105707250D02*
X165755250Y-91419750D01*
X146685000Y-118110000D02*
X155406000Y-109389000D01*
X166687500Y-90487500D02*
X186607500Y-90487500D01*
X155406000Y-109389000D02*
X162073500Y-109389000D01*
X165755250Y-91419750D02*
X166687500Y-90487500D01*
X186607500Y-90487500D02*
X189388750Y-87706250D01*
%TO.N,Net-(A1-D9)*%
X164046400Y-106849000D02*
X164046400Y-92561500D01*
X146685000Y-115570000D02*
X155406000Y-106849000D01*
X184468500Y-90086500D02*
X186848750Y-87706250D01*
X164046400Y-92561500D02*
X166521400Y-90086500D01*
X166521400Y-90086500D02*
X184468500Y-90086500D01*
X155406000Y-106849000D02*
X164046400Y-106849000D01*
%TO.N,Net-(A1-+5V)*%
X146228950Y-96351000D02*
X160824000Y-96351000D01*
X149701250Y-76200000D02*
X145584000Y-80317250D01*
X160824000Y-96351000D02*
X161925000Y-95250000D01*
X145584000Y-95706050D02*
X146228950Y-96351000D01*
X145584000Y-80317250D02*
X145584000Y-95706050D01*
%TO.N,Net-(A1-SCK)*%
X184626250Y-95714750D02*
X184626250Y-100488750D01*
X189031996Y-91813750D02*
X189650000Y-92431754D01*
X187540000Y-92431754D02*
X188158004Y-91813750D01*
X188158004Y-91813750D02*
X189031996Y-91813750D01*
X184626250Y-100488750D02*
X161925000Y-123190000D01*
X188158004Y-93923750D02*
X188132552Y-93898298D01*
X184626250Y-94912750D02*
X185983900Y-94912750D01*
X188132552Y-93898298D02*
X186316100Y-95714750D01*
X186055000Y-92868750D02*
X184626250Y-94297500D01*
X187540000Y-93305746D02*
X187540000Y-92431754D01*
X186316100Y-95714750D02*
X184626250Y-95714750D01*
X189650000Y-92431754D02*
X189650000Y-93305746D01*
X189650000Y-93305746D02*
X189031996Y-93923750D01*
X187565452Y-93331198D02*
X187540000Y-93305746D01*
X184626250Y-94297500D02*
X184626250Y-94912750D01*
X185983900Y-94912750D02*
X187565452Y-93331198D01*
X189031996Y-93923750D02*
X188158004Y-93923750D01*
%TO.N,Net-(A1-D3)*%
X146228950Y-121751000D02*
X145183000Y-120705050D01*
X187890250Y-124291000D02*
X149681050Y-124291000D01*
X145183000Y-120705050D02*
X145183000Y-101832000D01*
X209787500Y-102393750D02*
X187890250Y-124291000D01*
X145183000Y-101832000D02*
X146685000Y-100330000D01*
X149681050Y-124291000D02*
X147141050Y-121751000D01*
X147141050Y-121751000D02*
X146228950Y-121751000D01*
%TO.N,Net-(A1-SDA{slash}A4)*%
X147141050Y-114469000D02*
X156200050Y-105410000D01*
X156200050Y-105410000D02*
X161925000Y-105410000D01*
X146228950Y-119211000D02*
X145584000Y-118566050D01*
X145584000Y-118566050D02*
X145584000Y-115113950D01*
X164324000Y-119211000D02*
X146228950Y-119211000D01*
X188595000Y-92868750D02*
X186150000Y-95313750D01*
X183571250Y-99963750D02*
X164324000Y-119211000D01*
X183571250Y-95931754D02*
X183571250Y-99963750D01*
X145584000Y-115113950D02*
X146228950Y-114469000D01*
X186150000Y-95313750D02*
X184189254Y-95313750D01*
X184189254Y-95313750D02*
X183571250Y-95931754D01*
X146228950Y-114469000D02*
X147141050Y-114469000D01*
%TD*%
M02*
