M48
; DRILL file {KiCad 9.0.5} date 2026-06-10T21:41:03+0530
; FORMAT={-:-/ absolute / metric / decimal}
; #@! TF.CreationDate,2026-06-10T21:41:03+05:30
; #@! TF.GenerationSoftware,Kicad,Pcbnew,9.0.5
; #@! TF.FileFunction,Plated,1,2,PTH
FMAT,2
METRIC
; #@! TA.AperFunction,Plated,PTH,ComponentDrill
T1C1.000
; #@! TA.AperFunction,Plated,PTH,ComponentDrill
T2C1.020
%
G90
G05
T1
X146.685Y-87.63
X146.685Y-90.17
X146.685Y-92.71
X146.685Y-95.25
X146.685Y-97.79
X146.685Y-100.33
X146.685Y-102.87
X146.685Y-105.41
X146.685Y-107.95
X146.685Y-110.49
X146.685Y-113.03
X146.685Y-115.57
X146.685Y-118.11
X146.685Y-120.65
X146.685Y-123.19
X149.701Y-76.2
X152.241Y-76.2
X154.781Y-76.2
X157.321Y-76.2
X161.925Y-87.63
X161.925Y-90.17
X161.925Y-92.71
X161.925Y-95.25
X161.925Y-97.79
X161.925Y-100.33
X161.925Y-102.87
X161.925Y-105.41
X161.925Y-107.95
X161.925Y-110.49
X161.925Y-113.03
X161.925Y-115.57
X161.925Y-118.11
X161.925Y-120.65
X161.925Y-123.19
X180.975Y-92.869
X183.515Y-92.869
X186.055Y-92.869
X188.595Y-92.869
X204.787Y-102.394
X209.787Y-102.394
T2
X184.309Y-87.706
X186.849Y-87.706
X189.389Y-87.706
X191.929Y-87.706
M30
