%TF.GenerationSoftware,KiCad,Pcbnew,9.0.5*%
%TF.CreationDate,2026-06-10T21:39:46+05:30*%
%TF.ProjectId,Hermes,4865726d-6573-42e6-9b69-6361645f7063,rev?*%
%TF.SameCoordinates,Original*%
%TF.FileFunction,Legend,Top*%
%TF.FilePolarity,Positive*%
%FSLAX46Y46*%
G04 Gerber Fmt 4.6, Leading zero omitted, Abs format (unit mm)*
G04 Created by KiCad (PCBNEW 9.0.5) date 2026-06-10 21:39:46*
%MOMM*%
%LPD*%
G01*
G04 APERTURE LIST*
%ADD10C,0.150000*%
%ADD11C,0.120000*%
%ADD12C,0.127000*%
%ADD13C,0.200000*%
G04 APERTURE END LIST*
D10*
X153590714Y-82719104D02*
X154066904Y-82719104D01*
X153495476Y-83004819D02*
X153828809Y-82004819D01*
X153828809Y-82004819D02*
X154162142Y-83004819D01*
X155019285Y-83004819D02*
X154447857Y-83004819D01*
X154733571Y-83004819D02*
X154733571Y-82004819D01*
X154733571Y-82004819D02*
X154638333Y-82147676D01*
X154638333Y-82147676D02*
X154543095Y-82242914D01*
X154543095Y-82242914D02*
X154447857Y-82290533D01*
X153043095Y-122644819D02*
X153043095Y-123454342D01*
X153043095Y-123454342D02*
X153090714Y-123549580D01*
X153090714Y-123549580D02*
X153138333Y-123597200D01*
X153138333Y-123597200D02*
X153233571Y-123644819D01*
X153233571Y-123644819D02*
X153424047Y-123644819D01*
X153424047Y-123644819D02*
X153519285Y-123597200D01*
X153519285Y-123597200D02*
X153566904Y-123549580D01*
X153566904Y-123549580D02*
X153614523Y-123454342D01*
X153614523Y-123454342D02*
X153614523Y-122644819D01*
X154043095Y-123597200D02*
X154185952Y-123644819D01*
X154185952Y-123644819D02*
X154424047Y-123644819D01*
X154424047Y-123644819D02*
X154519285Y-123597200D01*
X154519285Y-123597200D02*
X154566904Y-123549580D01*
X154566904Y-123549580D02*
X154614523Y-123454342D01*
X154614523Y-123454342D02*
X154614523Y-123359104D01*
X154614523Y-123359104D02*
X154566904Y-123263866D01*
X154566904Y-123263866D02*
X154519285Y-123216247D01*
X154519285Y-123216247D02*
X154424047Y-123168628D01*
X154424047Y-123168628D02*
X154233571Y-123121009D01*
X154233571Y-123121009D02*
X154138333Y-123073390D01*
X154138333Y-123073390D02*
X154090714Y-123025771D01*
X154090714Y-123025771D02*
X154043095Y-122930533D01*
X154043095Y-122930533D02*
X154043095Y-122835295D01*
X154043095Y-122835295D02*
X154090714Y-122740057D01*
X154090714Y-122740057D02*
X154138333Y-122692438D01*
X154138333Y-122692438D02*
X154233571Y-122644819D01*
X154233571Y-122644819D02*
X154471666Y-122644819D01*
X154471666Y-122644819D02*
X154614523Y-122692438D01*
X155376428Y-123121009D02*
X155519285Y-123168628D01*
X155519285Y-123168628D02*
X155566904Y-123216247D01*
X155566904Y-123216247D02*
X155614523Y-123311485D01*
X155614523Y-123311485D02*
X155614523Y-123454342D01*
X155614523Y-123454342D02*
X155566904Y-123549580D01*
X155566904Y-123549580D02*
X155519285Y-123597200D01*
X155519285Y-123597200D02*
X155424047Y-123644819D01*
X155424047Y-123644819D02*
X155043095Y-123644819D01*
X155043095Y-123644819D02*
X155043095Y-122644819D01*
X155043095Y-122644819D02*
X155376428Y-122644819D01*
X155376428Y-122644819D02*
X155471666Y-122692438D01*
X155471666Y-122692438D02*
X155519285Y-122740057D01*
X155519285Y-122740057D02*
X155566904Y-122835295D01*
X155566904Y-122835295D02*
X155566904Y-122930533D01*
X155566904Y-122930533D02*
X155519285Y-123025771D01*
X155519285Y-123025771D02*
X155471666Y-123073390D01*
X155471666Y-123073390D02*
X155376428Y-123121009D01*
X155376428Y-123121009D02*
X155043095Y-123121009D01*
X151726473Y-73453618D02*
X151816462Y-73483614D01*
X151816462Y-73483614D02*
X151966443Y-73483614D01*
X151966443Y-73483614D02*
X152026436Y-73453618D01*
X152026436Y-73453618D02*
X152056432Y-73423621D01*
X152056432Y-73423621D02*
X152086428Y-73363629D01*
X152086428Y-73363629D02*
X152086428Y-73303636D01*
X152086428Y-73303636D02*
X152056432Y-73243644D01*
X152056432Y-73243644D02*
X152026436Y-73213648D01*
X152026436Y-73213648D02*
X151966443Y-73183651D01*
X151966443Y-73183651D02*
X151846458Y-73153655D01*
X151846458Y-73153655D02*
X151786466Y-73123659D01*
X151786466Y-73123659D02*
X151756470Y-73093663D01*
X151756470Y-73093663D02*
X151726473Y-73033670D01*
X151726473Y-73033670D02*
X151726473Y-72973678D01*
X151726473Y-72973678D02*
X151756470Y-72913685D01*
X151756470Y-72913685D02*
X151786466Y-72883689D01*
X151786466Y-72883689D02*
X151846458Y-72853693D01*
X151846458Y-72853693D02*
X151996440Y-72853693D01*
X151996440Y-72853693D02*
X152086428Y-72883689D01*
X152356395Y-73153655D02*
X152566368Y-73153655D01*
X152656357Y-73483614D02*
X152356395Y-73483614D01*
X152356395Y-73483614D02*
X152356395Y-72853693D01*
X152356395Y-72853693D02*
X152656357Y-72853693D01*
X152926324Y-73483614D02*
X152926324Y-72853693D01*
X152926324Y-72853693D02*
X153286279Y-73483614D01*
X153286279Y-73483614D02*
X153286279Y-72853693D01*
X153556244Y-73453618D02*
X153646233Y-73483614D01*
X153646233Y-73483614D02*
X153796214Y-73483614D01*
X153796214Y-73483614D02*
X153856207Y-73453618D01*
X153856207Y-73453618D02*
X153886203Y-73423621D01*
X153886203Y-73423621D02*
X153916199Y-73363629D01*
X153916199Y-73363629D02*
X153916199Y-73303636D01*
X153916199Y-73303636D02*
X153886203Y-73243644D01*
X153886203Y-73243644D02*
X153856207Y-73213648D01*
X153856207Y-73213648D02*
X153796214Y-73183651D01*
X153796214Y-73183651D02*
X153676229Y-73153655D01*
X153676229Y-73153655D02*
X153616237Y-73123659D01*
X153616237Y-73123659D02*
X153586241Y-73093663D01*
X153586241Y-73093663D02*
X153556244Y-73033670D01*
X153556244Y-73033670D02*
X153556244Y-72973678D01*
X153556244Y-72973678D02*
X153586241Y-72913685D01*
X153586241Y-72913685D02*
X153616237Y-72883689D01*
X153616237Y-72883689D02*
X153676229Y-72853693D01*
X153676229Y-72853693D02*
X153826211Y-72853693D01*
X153826211Y-72853693D02*
X153916199Y-72883689D01*
X154186166Y-73243644D02*
X154666106Y-73243644D01*
X155296026Y-73483614D02*
X154936071Y-73483614D01*
X155116049Y-73483614D02*
X155116049Y-72853693D01*
X155116049Y-72853693D02*
X155056056Y-72943681D01*
X155056056Y-72943681D02*
X154996064Y-73003674D01*
X154996064Y-73003674D02*
X154936071Y-73033670D01*
X206841499Y-83844079D02*
X206841499Y-84654024D01*
X206841499Y-84654024D02*
X206889142Y-84749312D01*
X206889142Y-84749312D02*
X206936786Y-84796956D01*
X206936786Y-84796956D02*
X207032074Y-84844599D01*
X207032074Y-84844599D02*
X207222649Y-84844599D01*
X207222649Y-84844599D02*
X207317937Y-84796956D01*
X207317937Y-84796956D02*
X207365580Y-84749312D01*
X207365580Y-84749312D02*
X207413224Y-84654024D01*
X207413224Y-84654024D02*
X207413224Y-83844079D01*
X208413744Y-84844599D02*
X207842019Y-84844599D01*
X208127882Y-84844599D02*
X208127882Y-83844079D01*
X208127882Y-83844079D02*
X208032594Y-83987011D01*
X208032594Y-83987011D02*
X207937306Y-84082298D01*
X207937306Y-84082298D02*
X207842019Y-84129942D01*
X206129167Y-98665950D02*
X206272024Y-98713569D01*
X206272024Y-98713569D02*
X206510119Y-98713569D01*
X206510119Y-98713569D02*
X206605357Y-98665950D01*
X206605357Y-98665950D02*
X206652976Y-98618330D01*
X206652976Y-98618330D02*
X206700595Y-98523092D01*
X206700595Y-98523092D02*
X206700595Y-98427854D01*
X206700595Y-98427854D02*
X206652976Y-98332616D01*
X206652976Y-98332616D02*
X206605357Y-98284997D01*
X206605357Y-98284997D02*
X206510119Y-98237378D01*
X206510119Y-98237378D02*
X206319643Y-98189759D01*
X206319643Y-98189759D02*
X206224405Y-98142140D01*
X206224405Y-98142140D02*
X206176786Y-98094521D01*
X206176786Y-98094521D02*
X206129167Y-97999283D01*
X206129167Y-97999283D02*
X206129167Y-97904045D01*
X206129167Y-97904045D02*
X206176786Y-97808807D01*
X206176786Y-97808807D02*
X206224405Y-97761188D01*
X206224405Y-97761188D02*
X206319643Y-97713569D01*
X206319643Y-97713569D02*
X206557738Y-97713569D01*
X206557738Y-97713569D02*
X206700595Y-97761188D01*
X207033929Y-97713569D02*
X207272024Y-98713569D01*
X207272024Y-98713569D02*
X207462500Y-97999283D01*
X207462500Y-97999283D02*
X207652976Y-98713569D01*
X207652976Y-98713569D02*
X207891072Y-97713569D01*
X208795833Y-98713569D02*
X208224405Y-98713569D01*
X208510119Y-98713569D02*
X208510119Y-97713569D01*
X208510119Y-97713569D02*
X208414881Y-97856426D01*
X208414881Y-97856426D02*
X208319643Y-97951664D01*
X208319643Y-97951664D02*
X208224405Y-97999283D01*
X168995714Y-90988569D02*
X168995714Y-89988569D01*
X168995714Y-89988569D02*
X169233809Y-89988569D01*
X169233809Y-89988569D02*
X169376666Y-90036188D01*
X169376666Y-90036188D02*
X169471904Y-90131426D01*
X169471904Y-90131426D02*
X169519523Y-90226664D01*
X169519523Y-90226664D02*
X169567142Y-90417140D01*
X169567142Y-90417140D02*
X169567142Y-90559997D01*
X169567142Y-90559997D02*
X169519523Y-90750473D01*
X169519523Y-90750473D02*
X169471904Y-90845711D01*
X169471904Y-90845711D02*
X169376666Y-90940950D01*
X169376666Y-90940950D02*
X169233809Y-90988569D01*
X169233809Y-90988569D02*
X168995714Y-90988569D01*
X169948095Y-90940950D02*
X170090952Y-90988569D01*
X170090952Y-90988569D02*
X170329047Y-90988569D01*
X170329047Y-90988569D02*
X170424285Y-90940950D01*
X170424285Y-90940950D02*
X170471904Y-90893330D01*
X170471904Y-90893330D02*
X170519523Y-90798092D01*
X170519523Y-90798092D02*
X170519523Y-90702854D01*
X170519523Y-90702854D02*
X170471904Y-90607616D01*
X170471904Y-90607616D02*
X170424285Y-90559997D01*
X170424285Y-90559997D02*
X170329047Y-90512378D01*
X170329047Y-90512378D02*
X170138571Y-90464759D01*
X170138571Y-90464759D02*
X170043333Y-90417140D01*
X170043333Y-90417140D02*
X169995714Y-90369521D01*
X169995714Y-90369521D02*
X169948095Y-90274283D01*
X169948095Y-90274283D02*
X169948095Y-90179045D01*
X169948095Y-90179045D02*
X169995714Y-90083807D01*
X169995714Y-90083807D02*
X170043333Y-90036188D01*
X170043333Y-90036188D02*
X170138571Y-89988569D01*
X170138571Y-89988569D02*
X170376666Y-89988569D01*
X170376666Y-89988569D02*
X170519523Y-90036188D01*
X171471904Y-90988569D02*
X170900476Y-90988569D01*
X171186190Y-90988569D02*
X171186190Y-89988569D01*
X171186190Y-89988569D02*
X171090952Y-90131426D01*
X171090952Y-90131426D02*
X170995714Y-90226664D01*
X170995714Y-90226664D02*
X170900476Y-90274283D01*
D11*
%TO.C,A1*%
X145285000Y-83690000D02*
X145285000Y-86360000D01*
X145285000Y-88900000D02*
X145285000Y-127130000D01*
X145285000Y-127130000D02*
X150365000Y-127130000D01*
X147955000Y-86360000D02*
X145285000Y-86360000D01*
X147955000Y-88900000D02*
X145285000Y-88900000D01*
X147955000Y-88900000D02*
X147955000Y-86360000D01*
X147955000Y-88900000D02*
X147955000Y-124460000D01*
X147955000Y-124460000D02*
X145285000Y-124460000D01*
X150365000Y-119250000D02*
X158245000Y-119250000D01*
X150365000Y-129670000D02*
X150365000Y-119250000D01*
X158245000Y-119250000D02*
X158245000Y-129670000D01*
X158245000Y-129670000D02*
X150365000Y-129670000D01*
X160655000Y-86360000D02*
X160655000Y-124460000D01*
X160655000Y-86360000D02*
X163325000Y-86360000D01*
X160655000Y-124460000D02*
X163325000Y-124460000D01*
X163325000Y-83690000D02*
X145285000Y-83690000D01*
X163325000Y-127130000D02*
X158245000Y-127130000D01*
X163325000Y-127130000D02*
X163325000Y-83690000D01*
D12*
%TO.C,SENS-1*%
X147511250Y-73950000D02*
X159511250Y-73950000D01*
X147511250Y-78450000D02*
X147511250Y-73950000D01*
X147761250Y-76450000D02*
X148011250Y-76700000D01*
X148011250Y-75700000D02*
X148011250Y-76700000D01*
X148011250Y-76700000D02*
X147761250Y-76450000D01*
X148011250Y-76700000D02*
X148261250Y-76450000D01*
X159511250Y-73950000D02*
X159511250Y-78450000D01*
X159511250Y-78450000D02*
X147511250Y-78450000D01*
%TO.C,U1*%
X165618750Y-82236250D02*
X166618750Y-82236250D01*
X165618750Y-83436250D02*
X165618750Y-82236250D01*
X166618750Y-82236250D02*
X166618750Y-68436250D01*
X166618750Y-82236250D02*
X182618750Y-82236250D01*
X182618750Y-68436250D02*
X166618750Y-68436250D01*
X182618750Y-82236250D02*
X182618750Y-68436250D01*
X182618750Y-82236250D02*
X193618750Y-82236250D01*
X193618750Y-82236250D02*
X193618750Y-68436250D01*
X193618750Y-82236250D02*
X209618750Y-82236250D01*
X209618750Y-68436250D02*
X193618750Y-68436250D01*
X209618750Y-82236250D02*
X209618750Y-68436250D01*
X209618750Y-82236250D02*
X210618750Y-82236250D01*
X210618750Y-82236250D02*
X210618750Y-83436250D01*
X210618750Y-83436250D02*
X165618750Y-83436250D01*
%TO.C,SW1*%
X204287500Y-99393750D02*
X210287500Y-99393750D01*
X204287500Y-101318750D02*
X204287500Y-99393750D01*
X204287500Y-105393750D02*
X204287500Y-103468750D01*
X210287500Y-99393750D02*
X210287500Y-101318750D01*
X210287500Y-103468750D02*
X210287500Y-105393750D01*
X210287500Y-105393750D02*
X204287500Y-105393750D01*
D13*
X203587500Y-102393750D02*
G75*
G02*
X203387500Y-102393750I-100000J0D01*
G01*
X203387500Y-102393750D02*
G75*
G02*
X203587500Y-102393750I100000J0D01*
G01*
D12*
%TO.C,DS1*%
X167035000Y-91568750D02*
X202535000Y-91568750D01*
X167035000Y-125268750D02*
X167035000Y-91568750D01*
X202535000Y-91568750D02*
X202535000Y-125268750D01*
X202535000Y-125268750D02*
X167035000Y-125268750D01*
D13*
X181075000Y-91018750D02*
G75*
G02*
X180875000Y-91018750I-100000J0D01*
G01*
X180875000Y-91018750D02*
G75*
G02*
X181075000Y-91018750I100000J0D01*
G01*
%TD*%
M02*
